<mxfile host="Electron" modified="2024-05-24T19:45:04.270Z" agent="Mozilla/5.0 (Windows NT 10.0; Win64; x64) AppleWebKit/537.36 (KHTML, like Gecko) draw.io/21.7.5 Chrome/114.0.5735.289 Electron/25.8.1 Safari/537.36" etag="etbhae-UxT9oBCDMOn4c" version="21.7.5" type="device">
  <diagram name="Página-1" id="lZBccMddr6YXILBvvr8p">
    <mxGraphModel dx="1195" dy="737" grid="1" gridSize="10" guides="1" tooltips="1" connect="1" arrows="1" fold="1" page="1" pageScale="1" pageWidth="869" pageHeight="420" math="0" shadow="0">
      <root>
        <mxCell id="0" />
        <mxCell id="1" parent="0" />
        <mxCell id="Wruj7RnomxmxO65NPAEt-106" value="" style="rounded=0;whiteSpace=wrap;html=1;dashed=1;fillColor=#B5B5B5;strokeColor=#666666;gradientColor=#DEDEDE;gradientDirection=radial;" vertex="1" parent="1">
          <mxGeometry width="868" height="840" as="geometry" />
        </mxCell>
        <mxCell id="Wruj7RnomxmxO65NPAEt-41" value="CIRCUITOS LOGICOS DE CONJUNTOS" style="text;html=1;align=center;verticalAlign=middle;resizable=0;points=[];autosize=1;strokeColor=none;fillColor=none;fontSize=31;" vertex="1" parent="1">
          <mxGeometry x="140" y="20" width="590" height="50" as="geometry" />
        </mxCell>
        <mxCell id="Wruj7RnomxmxO65NPAEt-39" value="" style="rounded=0;whiteSpace=wrap;html=1;fillColor=#f5f5f5;dashed=1;dashPattern=12 12;fontColor=#333333;strokeColor=#B8B8B8;" vertex="1" parent="1">
          <mxGeometry x="15" y="80" width="400" height="350" as="geometry" />
        </mxCell>
        <mxCell id="Wruj7RnomxmxO65NPAEt-9" value="" style="whiteSpace=wrap;html=1;aspect=fixed;fillColor=#C3ABD0;strokeColor=#9673a6;" vertex="1" parent="1">
          <mxGeometry x="175" y="130" width="80" height="80" as="geometry" />
        </mxCell>
        <mxCell id="Wruj7RnomxmxO65NPAEt-7" value="CONJUNTO&lt;br&gt;A" style="shape=dataStorage;whiteSpace=wrap;html=1;fixedSize=1;strokeColor=#EA6B66;" vertex="1" parent="1">
          <mxGeometry x="95" y="130" width="120" height="80" as="geometry" />
        </mxCell>
        <mxCell id="Wruj7RnomxmxO65NPAEt-13" value="CONJUNTO&lt;br&gt;B" style="shape=step;perimeter=stepPerimeter;whiteSpace=wrap;html=1;fixedSize=1;strokeColor=#7EA6E0;" vertex="1" parent="1">
          <mxGeometry x="215" y="130" width="120" height="80" as="geometry" />
        </mxCell>
        <mxCell id="Wruj7RnomxmxO65NPAEt-14" value="INTERSEÇÃO&lt;br&gt;A ∩B" style="text;html=1;align=center;verticalAlign=middle;resizable=0;points=[];autosize=1;strokeColor=none;fillColor=none;" vertex="1" parent="1">
          <mxGeometry x="165" y="85" width="100" height="40" as="geometry" />
        </mxCell>
        <mxCell id="Wruj7RnomxmxO65NPAEt-15" value="" style="shape=card;whiteSpace=wrap;html=1;" vertex="1" parent="1">
          <mxGeometry x="82.5" y="250" width="190" height="150" as="geometry" />
        </mxCell>
        <mxCell id="Wruj7RnomxmxO65NPAEt-26" value="" style="endArrow=none;dashed=1;html=1;rounded=0;fillColor=#f8cecc;strokeColor=#b85450;strokeWidth=3;" edge="1" parent="1">
          <mxGeometry width="50" height="50" relative="1" as="geometry">
            <mxPoint x="25" y="350" as="sourcePoint" />
            <mxPoint x="153.79999999999995" y="350" as="targetPoint" />
          </mxGeometry>
        </mxCell>
        <mxCell id="Wruj7RnomxmxO65NPAEt-27" value="CONJUNTO A" style="edgeLabel;html=1;align=center;verticalAlign=middle;resizable=0;points=[];labelBackgroundColor=default;" vertex="1" connectable="0" parent="Wruj7RnomxmxO65NPAEt-26">
          <mxGeometry x="-0.4286" y="-1" relative="1" as="geometry">
            <mxPoint x="23" as="offset" />
          </mxGeometry>
        </mxCell>
        <mxCell id="Wruj7RnomxmxO65NPAEt-28" value="" style="endArrow=none;dashed=1;html=1;rounded=0;fillColor=#dae8fc;strokeColor=#6c8ebf;strokeWidth=3;" edge="1" parent="1">
          <mxGeometry width="50" height="50" relative="1" as="geometry">
            <mxPoint x="25" y="380" as="sourcePoint" />
            <mxPoint x="153.79999999999995" y="380" as="targetPoint" />
          </mxGeometry>
        </mxCell>
        <mxCell id="Wruj7RnomxmxO65NPAEt-29" value="CONJUNTO B" style="edgeLabel;html=1;align=center;verticalAlign=middle;resizable=0;points=[];labelBackgroundColor=default;" vertex="1" connectable="0" parent="Wruj7RnomxmxO65NPAEt-28">
          <mxGeometry x="-0.4286" y="-1" relative="1" as="geometry">
            <mxPoint x="23" as="offset" />
          </mxGeometry>
        </mxCell>
        <mxCell id="Wruj7RnomxmxO65NPAEt-30" value="" style="triangle;whiteSpace=wrap;html=1;" vertex="1" parent="1">
          <mxGeometry x="155" y="340" width="45" height="50" as="geometry" />
        </mxCell>
        <mxCell id="Wruj7RnomxmxO65NPAEt-32" value="" style="endArrow=none;dashed=1;html=1;dashPattern=1 3;strokeWidth=2;rounded=0;strokeColor=#847D87;" edge="1" parent="1" target="Wruj7RnomxmxO65NPAEt-30">
          <mxGeometry width="50" height="50" relative="1" as="geometry">
            <mxPoint x="35" y="230" as="sourcePoint" />
            <mxPoint x="125" y="300" as="targetPoint" />
            <Array as="points">
              <mxPoint x="195" y="320" />
            </Array>
          </mxGeometry>
        </mxCell>
        <mxCell id="Wruj7RnomxmxO65NPAEt-33" value="FUNÇÃO&lt;br&gt;FILTRO" style="edgeLabel;html=1;align=center;verticalAlign=middle;resizable=0;points=[];labelBackgroundColor=default;" vertex="1" connectable="0" parent="Wruj7RnomxmxO65NPAEt-32">
          <mxGeometry x="-0.8948" y="1" relative="1" as="geometry">
            <mxPoint x="20" y="12" as="offset" />
          </mxGeometry>
        </mxCell>
        <mxCell id="Wruj7RnomxmxO65NPAEt-36" value="" style="endArrow=baseDash;dashed=1;html=1;dashPattern=1 3;strokeWidth=4;rounded=0;endFill=0;strokeColor=#A680B8;" edge="1" parent="1">
          <mxGeometry width="50" height="50" relative="1" as="geometry">
            <mxPoint x="203" y="364.8" as="sourcePoint" />
            <mxPoint x="395" y="365" as="targetPoint" />
          </mxGeometry>
        </mxCell>
        <mxCell id="Wruj7RnomxmxO65NPAEt-37" value="SAIDA&lt;br&gt;INTERSEÇÃO" style="edgeLabel;html=1;align=center;verticalAlign=middle;resizable=0;points=[];labelBackgroundColor=default;spacing=16;" vertex="1" connectable="0" parent="Wruj7RnomxmxO65NPAEt-36">
          <mxGeometry x="0.4698" y="1" relative="1" as="geometry">
            <mxPoint x="-19" y="1" as="offset" />
          </mxGeometry>
        </mxCell>
        <mxCell id="Wruj7RnomxmxO65NPAEt-40" value="FUNÇÃO INTERSEÇÃO" style="text;html=1;align=center;verticalAlign=middle;resizable=0;points=[];autosize=1;strokeColor=none;fillColor=none;fontSize=8;" vertex="1" parent="1">
          <mxGeometry x="122.5" y="250" width="110" height="20" as="geometry" />
        </mxCell>
        <mxCell id="Wruj7RnomxmxO65NPAEt-43" value="" style="rounded=0;whiteSpace=wrap;html=1;fillColor=#f5f5f5;dashed=1;dashPattern=12 12;fontColor=#333333;strokeColor=#B8B8B8;" vertex="1" parent="1">
          <mxGeometry x="455" y="80" width="400" height="350" as="geometry" />
        </mxCell>
        <mxCell id="Wruj7RnomxmxO65NPAEt-44" value="" style="whiteSpace=wrap;html=1;aspect=fixed;fillColor=#f8cecc;strokeColor=#b85450;" vertex="1" parent="1">
          <mxGeometry x="615" y="130" width="80" height="80" as="geometry" />
        </mxCell>
        <mxCell id="Wruj7RnomxmxO65NPAEt-45" value="CONJUNTO&lt;br&gt;A" style="shape=dataStorage;whiteSpace=wrap;html=1;fixedSize=1;strokeColor=#EA6B66;" vertex="1" parent="1">
          <mxGeometry x="535" y="130" width="120" height="80" as="geometry" />
        </mxCell>
        <mxCell id="Wruj7RnomxmxO65NPAEt-46" value="CONJUNTO&lt;br&gt;B" style="shape=step;perimeter=stepPerimeter;whiteSpace=wrap;html=1;fixedSize=1;strokeColor=#b85450;fillColor=default;" vertex="1" parent="1">
          <mxGeometry x="655" y="130" width="120" height="80" as="geometry" />
        </mxCell>
        <mxCell id="Wruj7RnomxmxO65NPAEt-47" value="UNIÃO&lt;br&gt;A ∪ B" style="text;html=1;align=center;verticalAlign=middle;resizable=0;points=[];autosize=1;strokeColor=none;fillColor=none;" vertex="1" parent="1">
          <mxGeometry x="625" y="85" width="60" height="40" as="geometry" />
        </mxCell>
        <mxCell id="Wruj7RnomxmxO65NPAEt-48" value="" style="shape=card;whiteSpace=wrap;html=1;" vertex="1" parent="1">
          <mxGeometry x="527.5" y="250" width="190" height="150" as="geometry" />
        </mxCell>
        <mxCell id="Wruj7RnomxmxO65NPAEt-49" value="" style="endArrow=none;dashed=1;html=1;rounded=0;fillColor=#f8cecc;strokeColor=#b85450;strokeWidth=3;" edge="1" parent="1">
          <mxGeometry width="50" height="50" relative="1" as="geometry">
            <mxPoint x="470" y="350" as="sourcePoint" />
            <mxPoint x="598.8" y="350" as="targetPoint" />
          </mxGeometry>
        </mxCell>
        <mxCell id="Wruj7RnomxmxO65NPAEt-50" value="CONJUNTO A" style="edgeLabel;html=1;align=center;verticalAlign=middle;resizable=0;points=[];labelBackgroundColor=default;" vertex="1" connectable="0" parent="Wruj7RnomxmxO65NPAEt-49">
          <mxGeometry x="-0.4286" y="-1" relative="1" as="geometry">
            <mxPoint x="23" as="offset" />
          </mxGeometry>
        </mxCell>
        <mxCell id="Wruj7RnomxmxO65NPAEt-51" value="" style="endArrow=none;dashed=1;html=1;rounded=0;fillColor=#f8cecc;strokeColor=#b85450;strokeWidth=3;" edge="1" parent="1">
          <mxGeometry width="50" height="50" relative="1" as="geometry">
            <mxPoint x="470" y="380" as="sourcePoint" />
            <mxPoint x="598.8" y="380" as="targetPoint" />
          </mxGeometry>
        </mxCell>
        <mxCell id="Wruj7RnomxmxO65NPAEt-52" value="CONJUNTO B" style="edgeLabel;html=1;align=center;verticalAlign=middle;resizable=0;points=[];labelBackgroundColor=default;" vertex="1" connectable="0" parent="Wruj7RnomxmxO65NPAEt-51">
          <mxGeometry x="-0.4286" y="-1" relative="1" as="geometry">
            <mxPoint x="23" as="offset" />
          </mxGeometry>
        </mxCell>
        <mxCell id="Wruj7RnomxmxO65NPAEt-53" value="" style="triangle;whiteSpace=wrap;html=1;" vertex="1" parent="1">
          <mxGeometry x="600" y="340" width="45" height="50" as="geometry" />
        </mxCell>
        <mxCell id="Wruj7RnomxmxO65NPAEt-54" value="" style="endArrow=none;dashed=1;html=1;dashPattern=1 3;strokeWidth=2;rounded=0;strokeColor=#847D87;" edge="1" parent="1" target="Wruj7RnomxmxO65NPAEt-53">
          <mxGeometry width="50" height="50" relative="1" as="geometry">
            <mxPoint x="480" y="230" as="sourcePoint" />
            <mxPoint x="570" y="300" as="targetPoint" />
            <Array as="points">
              <mxPoint x="640" y="320" />
            </Array>
          </mxGeometry>
        </mxCell>
        <mxCell id="Wruj7RnomxmxO65NPAEt-55" value="FUNÇÃO&lt;br&gt;UNIÃO" style="edgeLabel;html=1;align=center;verticalAlign=middle;resizable=0;points=[];labelBackgroundColor=default;" vertex="1" connectable="0" parent="Wruj7RnomxmxO65NPAEt-54">
          <mxGeometry x="-0.8948" y="1" relative="1" as="geometry">
            <mxPoint x="20" y="12" as="offset" />
          </mxGeometry>
        </mxCell>
        <mxCell id="Wruj7RnomxmxO65NPAEt-57" value="" style="endArrow=baseDash;dashed=1;html=1;dashPattern=1 3;strokeWidth=4;rounded=0;endFill=0;strokeColor=#b85450;fillColor=#f8cecc;" edge="1" parent="1">
          <mxGeometry width="50" height="50" relative="1" as="geometry">
            <mxPoint x="648" y="364.8" as="sourcePoint" />
            <mxPoint x="840" y="365" as="targetPoint" />
          </mxGeometry>
        </mxCell>
        <mxCell id="Wruj7RnomxmxO65NPAEt-58" value="SAIDA&lt;br&gt;UNIÃO" style="edgeLabel;html=1;align=center;verticalAlign=middle;resizable=0;points=[];labelBackgroundColor=default;spacing=16;" vertex="1" connectable="0" parent="Wruj7RnomxmxO65NPAEt-57">
          <mxGeometry x="0.4698" y="1" relative="1" as="geometry">
            <mxPoint x="-19" y="1" as="offset" />
          </mxGeometry>
        </mxCell>
        <mxCell id="Wruj7RnomxmxO65NPAEt-59" value="FUNÇÃO UNIÃO" style="text;html=1;align=center;verticalAlign=middle;resizable=0;points=[];autosize=1;strokeColor=none;fillColor=none;fontSize=8;" vertex="1" parent="1">
          <mxGeometry x="582.5" y="250" width="80" height="20" as="geometry" />
        </mxCell>
        <mxCell id="Wruj7RnomxmxO65NPAEt-60" value="" style="rounded=0;whiteSpace=wrap;html=1;fillColor=#f5f5f5;dashed=1;dashPattern=12 12;fontColor=#333333;strokeColor=#B8B8B8;" vertex="1" parent="1">
          <mxGeometry x="15" y="470" width="400" height="350" as="geometry" />
        </mxCell>
        <mxCell id="Wruj7RnomxmxO65NPAEt-61" value="" style="whiteSpace=wrap;html=1;aspect=fixed;fillColor=#dae8fc;strokeColor=#6c8ebf;" vertex="1" parent="1">
          <mxGeometry x="175" y="530" width="80" height="80" as="geometry" />
        </mxCell>
        <mxCell id="Wruj7RnomxmxO65NPAEt-62" value="CONJUNTO&lt;br&gt;A" style="shape=dataStorage;whiteSpace=wrap;html=1;fixedSize=1;strokeColor=#b85450;fillColor=#f8cecc;" vertex="1" parent="1">
          <mxGeometry x="95" y="530" width="120" height="80" as="geometry" />
        </mxCell>
        <mxCell id="Wruj7RnomxmxO65NPAEt-63" value="CONJUNTO&lt;br&gt;B" style="shape=step;perimeter=stepPerimeter;whiteSpace=wrap;html=1;fixedSize=1;strokeColor=#6c8ebf;fillColor=default;" vertex="1" parent="1">
          <mxGeometry x="215" y="530" width="120" height="80" as="geometry" />
        </mxCell>
        <mxCell id="Wruj7RnomxmxO65NPAEt-64" value="&lt;font style=&quot;font-size: 12px;&quot;&gt;DIFERENÇA&lt;br&gt;A – B&lt;/font&gt;" style="text;html=1;align=center;verticalAlign=middle;resizable=0;points=[];autosize=1;strokeColor=none;fillColor=none;" vertex="1" parent="1">
          <mxGeometry x="170" y="485" width="90" height="40" as="geometry" />
        </mxCell>
        <mxCell id="Wruj7RnomxmxO65NPAEt-65" value="" style="shape=card;whiteSpace=wrap;html=1;" vertex="1" parent="1">
          <mxGeometry x="87.5" y="640" width="190" height="150" as="geometry" />
        </mxCell>
        <mxCell id="Wruj7RnomxmxO65NPAEt-66" value="" style="endArrow=none;dashed=1;html=1;rounded=0;fillColor=#f8cecc;strokeColor=#b85450;strokeWidth=3;" edge="1" parent="1">
          <mxGeometry width="50" height="50" relative="1" as="geometry">
            <mxPoint x="30" y="740" as="sourcePoint" />
            <mxPoint x="158.79999999999995" y="740" as="targetPoint" />
          </mxGeometry>
        </mxCell>
        <mxCell id="Wruj7RnomxmxO65NPAEt-67" value="CONJUNTO A" style="edgeLabel;html=1;align=center;verticalAlign=middle;resizable=0;points=[];labelBackgroundColor=default;" vertex="1" connectable="0" parent="Wruj7RnomxmxO65NPAEt-66">
          <mxGeometry x="-0.4286" y="-1" relative="1" as="geometry">
            <mxPoint x="23" as="offset" />
          </mxGeometry>
        </mxCell>
        <mxCell id="Wruj7RnomxmxO65NPAEt-68" value="" style="endArrow=none;dashed=1;html=1;rounded=0;fillColor=#dae8fc;strokeColor=#6c8ebf;strokeWidth=3;" edge="1" parent="1">
          <mxGeometry width="50" height="50" relative="1" as="geometry">
            <mxPoint x="30" y="770" as="sourcePoint" />
            <mxPoint x="158.79999999999995" y="770" as="targetPoint" />
          </mxGeometry>
        </mxCell>
        <mxCell id="Wruj7RnomxmxO65NPAEt-69" value="CONJUNTO B" style="edgeLabel;html=1;align=center;verticalAlign=middle;resizable=0;points=[];labelBackgroundColor=default;" vertex="1" connectable="0" parent="Wruj7RnomxmxO65NPAEt-68">
          <mxGeometry x="-0.4286" y="-1" relative="1" as="geometry">
            <mxPoint x="23" as="offset" />
          </mxGeometry>
        </mxCell>
        <mxCell id="Wruj7RnomxmxO65NPAEt-70" value="" style="triangle;whiteSpace=wrap;html=1;" vertex="1" parent="1">
          <mxGeometry x="160" y="730" width="45" height="50" as="geometry" />
        </mxCell>
        <mxCell id="Wruj7RnomxmxO65NPAEt-71" value="" style="endArrow=none;dashed=1;html=1;dashPattern=1 3;strokeWidth=2;rounded=0;strokeColor=#847D87;" edge="1" parent="1" target="Wruj7RnomxmxO65NPAEt-70">
          <mxGeometry width="50" height="50" relative="1" as="geometry">
            <mxPoint x="40" y="620" as="sourcePoint" />
            <mxPoint x="130" y="690" as="targetPoint" />
            <Array as="points">
              <mxPoint x="200" y="710" />
            </Array>
          </mxGeometry>
        </mxCell>
        <mxCell id="Wruj7RnomxmxO65NPAEt-72" value="FUNÇÃO&lt;br&gt;DIFERENÇA" style="edgeLabel;html=1;align=center;verticalAlign=middle;resizable=0;points=[];labelBackgroundColor=default;" vertex="1" connectable="0" parent="Wruj7RnomxmxO65NPAEt-71">
          <mxGeometry x="-0.8948" y="1" relative="1" as="geometry">
            <mxPoint x="20" y="12" as="offset" />
          </mxGeometry>
        </mxCell>
        <mxCell id="Wruj7RnomxmxO65NPAEt-74" value="" style="endArrow=baseDash;dashed=1;html=1;dashPattern=1 3;strokeWidth=4;rounded=0;endFill=0;strokeColor=#b85450;fillColor=#f8cecc;" edge="1" parent="1">
          <mxGeometry width="50" height="50" relative="1" as="geometry">
            <mxPoint x="208" y="754.8" as="sourcePoint" />
            <mxPoint x="400" y="755" as="targetPoint" />
          </mxGeometry>
        </mxCell>
        <mxCell id="Wruj7RnomxmxO65NPAEt-75" value="SAIDA&lt;br&gt;DIFRENÇA" style="edgeLabel;html=1;align=center;verticalAlign=middle;resizable=0;points=[];labelBackgroundColor=default;spacing=16;" vertex="1" connectable="0" parent="Wruj7RnomxmxO65NPAEt-74">
          <mxGeometry x="0.4698" y="1" relative="1" as="geometry">
            <mxPoint x="-19" y="1" as="offset" />
          </mxGeometry>
        </mxCell>
        <mxCell id="Wruj7RnomxmxO65NPAEt-76" value="FUNÇÃO DIFERENÇA" style="text;html=1;align=center;verticalAlign=middle;resizable=0;points=[];autosize=1;strokeColor=none;fillColor=none;fontSize=8;" vertex="1" parent="1">
          <mxGeometry x="127.5" y="640" width="110" height="20" as="geometry" />
        </mxCell>
        <mxCell id="Wruj7RnomxmxO65NPAEt-78" value="" style="rounded=0;whiteSpace=wrap;html=1;fillColor=#f5f5f5;dashed=1;dashPattern=12 12;fontColor=#333333;strokeColor=#B8B8B8;" vertex="1" parent="1">
          <mxGeometry x="455" y="470" width="400" height="350" as="geometry" />
        </mxCell>
        <mxCell id="Wruj7RnomxmxO65NPAEt-79" value="" style="whiteSpace=wrap;html=1;aspect=fixed;fillColor=none;strokeColor=#6c8ebf;" vertex="1" parent="1">
          <mxGeometry x="615" y="530" width="80" height="80" as="geometry" />
        </mxCell>
        <mxCell id="Wruj7RnomxmxO65NPAEt-80" value="CONJUNTO&lt;br&gt;A" style="shape=dataStorage;whiteSpace=wrap;html=1;fixedSize=1;strokeColor=#b85450;fillColor=#f8cecc;" vertex="1" parent="1">
          <mxGeometry x="535" y="530" width="120" height="80" as="geometry" />
        </mxCell>
        <mxCell id="Wruj7RnomxmxO65NPAEt-81" value="CONJUNTO&lt;br&gt;B" style="shape=step;perimeter=stepPerimeter;whiteSpace=wrap;html=1;fixedSize=1;strokeColor=#6c8ebf;fillColor=#dae8fc;" vertex="1" parent="1">
          <mxGeometry x="655" y="530" width="120" height="80" as="geometry" />
        </mxCell>
        <mxCell id="Wruj7RnomxmxO65NPAEt-82" value="&lt;font style=&quot;&quot;&gt;DIFERENÇA DA INTERSEÇÃO&lt;br&gt;&lt;div style=&quot;&quot;&gt;&lt;span style=&quot;background-color: initial;&quot;&gt;&lt;span style=&quot;font-size: 11px;&quot;&gt;A ∩&lt;/span&gt;&lt;font style=&quot;font-size: 10px;&quot;&gt; &lt;/font&gt;&lt;span style=&quot;font-size: 11px;&quot;&gt;B&lt;/span&gt;&lt;/span&gt;&lt;/div&gt;&lt;/font&gt;" style="text;html=1;align=center;verticalAlign=middle;resizable=0;points=[];autosize=1;strokeColor=none;fillColor=none;" vertex="1" parent="1">
          <mxGeometry x="560" y="485" width="190" height="40" as="geometry" />
        </mxCell>
        <mxCell id="Wruj7RnomxmxO65NPAEt-83" value="" style="shape=card;whiteSpace=wrap;html=1;" vertex="1" parent="1">
          <mxGeometry x="527.5" y="640" width="190" height="150" as="geometry" />
        </mxCell>
        <mxCell id="Wruj7RnomxmxO65NPAEt-84" value="" style="endArrow=none;dashed=1;html=1;rounded=0;fillColor=#f8cecc;strokeColor=#b85450;strokeWidth=3;" edge="1" parent="1">
          <mxGeometry width="50" height="50" relative="1" as="geometry">
            <mxPoint x="470" y="740" as="sourcePoint" />
            <mxPoint x="598.8" y="740" as="targetPoint" />
          </mxGeometry>
        </mxCell>
        <mxCell id="Wruj7RnomxmxO65NPAEt-85" value="CONJUNTO A" style="edgeLabel;html=1;align=center;verticalAlign=middle;resizable=0;points=[];labelBackgroundColor=default;" vertex="1" connectable="0" parent="Wruj7RnomxmxO65NPAEt-84">
          <mxGeometry x="-0.4286" y="-1" relative="1" as="geometry">
            <mxPoint x="23" as="offset" />
          </mxGeometry>
        </mxCell>
        <mxCell id="Wruj7RnomxmxO65NPAEt-86" value="" style="endArrow=none;dashed=1;html=1;rounded=0;fillColor=#dae8fc;strokeColor=#6c8ebf;strokeWidth=3;" edge="1" parent="1">
          <mxGeometry width="50" height="50" relative="1" as="geometry">
            <mxPoint x="470" y="770" as="sourcePoint" />
            <mxPoint x="598.8" y="770" as="targetPoint" />
          </mxGeometry>
        </mxCell>
        <mxCell id="Wruj7RnomxmxO65NPAEt-87" value="CONJUNTO B" style="edgeLabel;html=1;align=center;verticalAlign=middle;resizable=0;points=[];labelBackgroundColor=default;" vertex="1" connectable="0" parent="Wruj7RnomxmxO65NPAEt-86">
          <mxGeometry x="-0.4286" y="-1" relative="1" as="geometry">
            <mxPoint x="23" as="offset" />
          </mxGeometry>
        </mxCell>
        <mxCell id="Wruj7RnomxmxO65NPAEt-88" value="" style="triangle;whiteSpace=wrap;html=1;" vertex="1" parent="1">
          <mxGeometry x="600" y="730" width="45" height="50" as="geometry" />
        </mxCell>
        <mxCell id="Wruj7RnomxmxO65NPAEt-89" value="" style="endArrow=none;dashed=1;html=1;dashPattern=1 3;strokeWidth=2;rounded=0;strokeColor=#847D87;" edge="1" parent="1" target="Wruj7RnomxmxO65NPAEt-88">
          <mxGeometry width="50" height="50" relative="1" as="geometry">
            <mxPoint x="480" y="620" as="sourcePoint" />
            <mxPoint x="570" y="690" as="targetPoint" />
            <Array as="points">
              <mxPoint x="640" y="710" />
            </Array>
          </mxGeometry>
        </mxCell>
        <mxCell id="Wruj7RnomxmxO65NPAEt-90" value="FUNÇÃO&lt;br&gt;FILTRO" style="edgeLabel;html=1;align=center;verticalAlign=middle;resizable=0;points=[];labelBackgroundColor=default;" vertex="1" connectable="0" parent="Wruj7RnomxmxO65NPAEt-89">
          <mxGeometry x="-0.8948" y="1" relative="1" as="geometry">
            <mxPoint x="20" y="12" as="offset" />
          </mxGeometry>
        </mxCell>
        <mxCell id="Wruj7RnomxmxO65NPAEt-91" value="∪" style="text;html=1;align=center;verticalAlign=middle;resizable=0;points=[];autosize=1;strokeColor=none;fillColor=none;rotation=-180;fontSize=23;fontStyle=4" vertex="1" parent="1">
          <mxGeometry x="595" y="739" width="40" height="40" as="geometry" />
        </mxCell>
        <mxCell id="Wruj7RnomxmxO65NPAEt-92" value="" style="endArrow=baseDash;dashed=1;html=1;dashPattern=1 3;strokeWidth=4;rounded=0;endFill=0;strokeColor=#b85450;fillColor=#f8cecc;" edge="1" parent="1">
          <mxGeometry width="50" height="50" relative="1" as="geometry">
            <mxPoint x="634" y="745.8" as="sourcePoint" />
            <mxPoint x="826" y="746" as="targetPoint" />
          </mxGeometry>
        </mxCell>
        <mxCell id="Wruj7RnomxmxO65NPAEt-93" value="CONJUNTO A SEM&amp;nbsp; A∩B" style="edgeLabel;html=1;align=center;verticalAlign=middle;resizable=0;points=[];labelBackgroundColor=default;spacing=16;" vertex="1" connectable="0" parent="Wruj7RnomxmxO65NPAEt-92">
          <mxGeometry x="0.4698" y="1" relative="1" as="geometry">
            <mxPoint x="-19" as="offset" />
          </mxGeometry>
        </mxCell>
        <mxCell id="Wruj7RnomxmxO65NPAEt-94" value="FUNÇÃO DIFERENÇA" style="text;html=1;align=center;verticalAlign=middle;resizable=0;points=[];autosize=1;strokeColor=none;fillColor=none;fontSize=8;" vertex="1" parent="1">
          <mxGeometry x="567.5" y="640" width="110" height="20" as="geometry" />
        </mxCell>
        <mxCell id="Wruj7RnomxmxO65NPAEt-96" value="" style="endArrow=baseDash;dashed=1;html=1;dashPattern=1 3;strokeWidth=4;rounded=0;endFill=0;strokeColor=#6c8ebf;fillColor=#dae8fc;" edge="1" parent="1">
          <mxGeometry width="50" height="50" relative="1" as="geometry">
            <mxPoint x="634" y="763" as="sourcePoint" />
            <mxPoint x="826" y="763.2" as="targetPoint" />
          </mxGeometry>
        </mxCell>
        <mxCell id="Wruj7RnomxmxO65NPAEt-97" value="CONJUNTO B&amp;nbsp;SEM&amp;nbsp; A∩B" style="edgeLabel;html=1;align=center;verticalAlign=middle;resizable=0;points=[];labelBackgroundColor=default;spacing=16;" vertex="1" connectable="0" parent="Wruj7RnomxmxO65NPAEt-96">
          <mxGeometry x="0.4698" y="1" relative="1" as="geometry">
            <mxPoint x="-19" y="2" as="offset" />
          </mxGeometry>
        </mxCell>
        <mxCell id="Wruj7RnomxmxO65NPAEt-98" value="" style="endArrow=none;html=1;rounded=0;strokeWidth=0.5;" edge="1" parent="1">
          <mxGeometry width="50" height="50" relative="1" as="geometry">
            <mxPoint x="667.5" y="506.91999999999996" as="sourcePoint" />
            <mxPoint x="642.5" y="506.91999999999996" as="targetPoint" />
          </mxGeometry>
        </mxCell>
        <mxCell id="Wruj7RnomxmxO65NPAEt-103" value="∩" style="text;html=1;align=center;verticalAlign=middle;resizable=0;points=[];autosize=1;strokeColor=none;fillColor=none;fontSize=20;" vertex="1" parent="1">
          <mxGeometry x="151" y="345" width="40" height="40" as="geometry" />
        </mxCell>
        <mxCell id="Wruj7RnomxmxO65NPAEt-104" value="∪" style="text;html=1;align=center;verticalAlign=middle;resizable=0;points=[];autosize=1;strokeColor=none;fillColor=none;fontSize=20;" vertex="1" parent="1">
          <mxGeometry x="596" y="345" width="40" height="40" as="geometry" />
        </mxCell>
        <mxCell id="Wruj7RnomxmxO65NPAEt-105" value="-" style="text;html=1;align=center;verticalAlign=middle;resizable=0;points=[];autosize=1;strokeColor=none;fillColor=none;fontSize=20;" vertex="1" parent="1">
          <mxGeometry x="160" y="733" width="30" height="40" as="geometry" />
        </mxCell>
      </root>
    </mxGraphModel>
  </diagram>
</mxfile>
